# xmcd
#
# Track frame offsets:
#	183
#	14405
#	26000
#	37028
#	51200
#	69515
#	86255
#	106255
#	129473
#	143558
#	156893
#	167968
#	180370
#	190758
#	204578
#	221835
#	229598
#	240538
#	257920
#	265758
#	280768
#
# Disc length: 3916 seconds
# Revision: 0
# Processed by: cddbd v1.5.2PL0 Copyright (c) Steve Scherf et al.
# Submitted via: dBpowerAMP V12.0
#
DISCID=240f4a15
DTITLE=Norman Blake • Nancy Blake - The Norman and Nancy Blake Compact Disc
DYEAR=1986
DGENRE=Country
TTITLE0=Hello Stranger
TTITLE1=New Bicycle Hornpipe
TTITLE2=Marquis Of Huntley
TTITLE3=Florida Rag
TTITLE4=Jordan Am A Hard Road To Travel
TTITLE5=Belize
TTITLE6=Elzic's Farewell
TTITLE7=Lighthouse On The Shore
TTITLE8=Grand Junction
TTITLE9=Butterfly Weed
TTITLE10=President Garfield's Hornpipe
TTITLE11=In Russia (We Have Parking Lots, Too)
TTITLE12=Wroxall
TTITLE13=If I Lose, I Don't Care
TTITLE14=The Chrysanthemum
TTITLE15=Lima Road Jig
TTITLE16=Boston Boy • Last Night's Joy
TTITLE17=My Love Is Like A Red, Red Rose
TTITLE18=Peacock's Feather
TTITLE19=Wildwood Flower
TTITLE20=Tennessee Mountain Fox Chase
EXTD=
EXTT0=
EXTT1=
EXTT2=
EXTT3=
EXTT4=
EXTT5=
EXTT6=
EXTT7=
EXTT8=
EXTT9=
EXTT10=
EXTT11=
EXTT12=
EXTT13=
EXTT14=
EXTT15=
EXTT16=
EXTT17=
EXTT18=
EXTT19=
EXTT20=
PLAYORDER=
